<svg xmlns="http://www.w3.org/2000/svg" viewBox="0 0 332.53 67.85"><title>logo</title><path d="M232.62,15.67a2.66,2.66,0,0,0-2.74-1.8h-18.6a5,5,0,0,0-3.71,1.8,11.23,11.23,0,0,0-2.47,4.81s-5.92,22.16-5.92,22.22a5.19,5.19,0,0,0,5.34,6.4h15.91a5,5,0,0,0,3.72-1.8,11.29,11.29,0,0,0,2.46-4.8l1.18-4.41c.26-1,.07-1.47-.59-1.47H217.07c-.66,0-1.11.5-1.37,1.47l-1.21,4.37h-2.34l2.19-8h10.77c2.07,0,2.47-.4,3.21-1.21A7.58,7.58,0,0,0,230,30l2.56-9.54A7.85,7.85,0,0,0,232.62,15.67ZM214.84,29.28l2.4-9h3.21l-2.4,9Z" style="fill:#e50050"/><path d="M262.37,15.67a2.68,2.68,0,0,0-2.75-1.8H241a4.88,4.88,0,0,0-1,.11,5.33,5.33,0,0,0-2.71,1.69,11.35,11.35,0,0,0-2.46,4.8l-1.18,4.41c-.26,1-.07,1.47.59,1.47h8.18a3.34,3.34,0,0,0,2.48-1.21,7.62,7.62,0,0,0,1.63-3.2l.44-1.63h3.21L248,28.55h-8.23a9.91,9.91,0,0,0-9,7.09L229,42.5a7.89,7.89,0,0,0-.11,4.8,2.56,2.56,0,0,0,1.8,1.69,3.54,3.54,0,0,0,1,.11h20.06a3.3,3.3,0,0,0,2.48-1.21,7.59,7.59,0,0,0,1.64-3.19l6.49-24.23A7.89,7.89,0,0,0,262.37,15.67Zm-15.75,18-2.38,8.77H241l2.38-8.77Z" style="fill:#e50050"/><path d="M298.73,13.87H267.35c-.66,0-1.11.49-1.37,1.47l-8.66,32.3c-.26,1-.07,1.46.59,1.46H268c.66,0,1.11-.48,1.38-1.46l7.31-27.33H280l-7.32,27.33c-.26,1-.07,1.46.59,1.46h6.86c.65,0,1.11-.48,1.38-1.46l7.31-27.33H292l-7.32,27.33c-.26,1-.07,1.46.59,1.46h10.13c.65,0,1.11-.48,1.37-1.46L303.91,21C305,17,302.64,13.87,298.73,13.87Z" style="fill:#e50050"/><path d="M169.53,5.06H147.06c-.65,0-1.11.49-1.37,1.47l-11,41.11c-.26,1-.06,1.47.59,1.47h25.15a5,5,0,0,0,3.72-1.8,11.33,11.33,0,0,0,2.46-4.81l1-3.59a.24.24,0,0,1,0-.08l7.15-26.68C175.77,8.24,173.45,5.06,169.53,5.06Zm-19.84,37.4L158,11.51h3.22l-8.32,31Z" style="fill:#e50050"/><path d="M92.1,13.87H72.76c-.65,0-1.11.49-1.37,1.47l-8.65,32.3c-.27,1-.07,1.47.58,1.47H73.46c.65,0,1.11-.49,1.37-1.47l7.32-27.32h3.21L78.05,47.64c-.27,1-.07,1.47.58,1.47H88.77c.65,0,1.11-.49,1.37-1.47L97.29,21C98.34,17,96,13.87,92.1,13.87Z" style="fill:#e50050"/><path d="M67.79,15.67A2.68,2.68,0,0,0,65,13.87H46.44a4.79,4.79,0,0,0-1,.11,5.36,5.36,0,0,0-2.71,1.69,11.11,11.11,0,0,0-2.46,4.81l-1.18,4.4c-.26,1-.07,1.47.58,1.47h8.18a3.29,3.29,0,0,0,2.48-1.21A7.48,7.48,0,0,0,52,22l.43-1.63h3.21l-2.2,8.23H45.19a9.93,9.93,0,0,0-9,7.09L34.37,42.5a7.93,7.93,0,0,0-.12,4.81A2.56,2.56,0,0,0,36.06,49a3.45,3.45,0,0,0,.94.12H57.07a3.3,3.3,0,0,0,2.47-1.21,7.52,7.52,0,0,0,1.64-3.2l6.49-24.22A7.93,7.93,0,0,0,67.79,15.67ZM52,33.69l-2.39,8.77H46.44l2.38-8.77Z" style="fill:#e50050"/><path d="M132.7,11.33a5.17,5.17,0,0,0-5.36-6.27h-19a5,5,0,0,0-3.71,1.8,11.23,11.23,0,0,0-2.47,4.81L93.86,42.5a7.92,7.92,0,0,0-.11,4.81,2.67,2.67,0,0,0,2.75,1.8h21.72a5,5,0,0,0,3.71-1.8,11.23,11.23,0,0,0,2.47-4.81l3.44-12.85c.26-1,.07-1.46-.58-1.46H114.52l-2.26,8.44h2.39l-.59,2.2h-5.55l7.31-27.32H119l-3.48,13c-.27,1-.07,1.47.58,1.47h11.7c.66,0,1.11-.48,1.38-1.47l3.24-12.09A10.09,10.09,0,0,0,132.7,11.33Z" style="fill:#e50050"/><path d="M35,5.06H12.5c-.65,0-1.11.49-1.37,1.47L.11,47.64c-.26,1-.06,1.47.59,1.47H25.85a5,5,0,0,0,3.71-1.8A11.23,11.23,0,0,0,32,42.5l2.95-11a5.39,5.39,0,0,0,.07-3.2,1.79,1.79,0,0,0-1.83-1.21,3.3,3.3,0,0,0,2.48-1.21,6.92,6.92,0,0,0,1.39-2.43c.13-.45,3.07-11.29,3.07-11.29C41.21,8.24,38.88,5.06,35,5.06ZM18.34,42.46H15.13l3.4-12.59h3.22ZM20,24.3l3.42-12.79h3.22L23.24,24.3Z" style="fill:#e50050"/><path d="M187.69,20.31l-7.31,27.33c-.27,1-.72,1.46-1.38,1.46H168.87c-.66,0-.85-.48-.59-1.46l8.66-32.3c.26-1,.71-1.47,1.37-1.47h22a2.68,2.68,0,0,1,2.75,1.8c.46,1.2.07,4.11-.47,6.11l-.81,3.1c-.27,1-.72,1.47-1.38,1.47h-8.17a1.77,1.77,0,0,1-1.83-1.21,5.23,5.23,0,0,1,.07-3.2l.42-1.63Z" style="fill:#e50050"/><path d="M310.55,67.05a1.59,1.59,0,0,0,.6-1.48l-.92-6.6,4.28-5.1a1.59,1.59,0,0,0-.95-2.59L307,50.13l-3.53-5.65a1.61,1.61,0,0,0-1.41-.75,1.6,1.6,0,0,0-1.35.85l-3.12,5.87-6.47,1.62A1.59,1.59,0,0,0,290,54.15a1.75,1.75,0,0,0,.35.56L295,59.5l-.47,6.65a1.59,1.59,0,0,0,.71,1.43,1.62,1.62,0,0,0,1.58.11l6-2.92,6.18,2.5A1.61,1.61,0,0,0,310.55,67.05Z" style="fill:#e50050"/><path d="M329.12,13.7A10.14,10.14,0,0,0,323.46,16l5.21-9.88c1.81-3.44.67-6.19-2.56-6.13S320,1.24,317,6.33l-11.9,22.58c-1.82,3.44-.67,6.19,2.55,6.13a10.14,10.14,0,0,0,5.66-2.31l-5.21,9.88c-1.82,3.44-.67,6.19,2.56,6.13s6.41-1.17,9.13-6.33l11.9-22.58C333.49,16.39,332.34,13.65,329.12,13.7Z" style="fill:#e50050"/><path d="M285,62.94a.77.77,0,0,0,.28-.71L284.81,59l2.06-2.45a.78.78,0,0,0,.14-.76.8.8,0,0,0-.59-.49l-3.16-.56-1.71-2.72a.74.74,0,0,0-.68-.36.76.76,0,0,0-.65.4l-1.5,2.84-3.12.77a.77.77,0,0,0-.55.54.76.76,0,0,0,0,.47,1,1,0,0,0,.17.27l2.24,2.31-.23,3.21a.77.77,0,0,0,1.1.74l2.89-1.41,3,1.2A.77.77,0,0,0,285,62.94Z" style="fill:#e50050"/><path d="M270.18,62.94a.76.76,0,0,0,.29-.71L270,59l2.07-2.45a.75.75,0,0,0,.13-.76.76.76,0,0,0-.59-.49l-3.16-.56-1.7-2.72a.76.76,0,0,0-.68-.36.75.75,0,0,0-.65.4l-1.5,2.84-3.12.77a.78.78,0,0,0-.56.54.84.84,0,0,0,0,.47,1,1,0,0,0,.17.27l2.23,2.31-.23,3.21a.76.76,0,0,0,.35.68.74.74,0,0,0,.76.06l2.88-1.41,3,1.2A.77.77,0,0,0,270.18,62.94Z" style="fill:#e50050"/><path d="M255.4,62.94a.78.78,0,0,0,.29-.71L255.24,59l2.07-2.45a.77.77,0,0,0-.46-1.25l-3.16-.56L252,52.06a.76.76,0,0,0-.68-.36.75.75,0,0,0-.65.4l-1.51,2.84-3.12.77a.79.79,0,0,0-.55.54.69.69,0,0,0,0,.47.65.65,0,0,0,.17.27l2.23,2.31-.23,3.21a.78.78,0,0,0,1.11.74l2.88-1.41,3,1.2A.77.77,0,0,0,255.4,62.94Z" style="fill:#e50050"/><path d="M240.61,62.94a.76.76,0,0,0,.29-.71L240.46,59l2.06-2.45a.78.78,0,0,0,.14-.76.8.8,0,0,0-.59-.49l-3.17-.56-1.7-2.72a.75.75,0,0,0-.68-.36.76.76,0,0,0-.65.4l-1.5,2.84-3.12.77a.78.78,0,0,0-.56.54.84.84,0,0,0,0,.47,1,1,0,0,0,.17.27l2.23,2.31-.22,3.21a.77.77,0,0,0,1.1.74l2.89-1.41,3,1.2A.75.75,0,0,0,240.61,62.94Z" style="fill:#e50050"/></svg>